<svg id="visual" viewBox="0 0 960 540" width="960" height="540" xmlns="http://www.w3.org/2000/svg" xmlns:xlink="http://www.w3.org/1999/xlink" version="1.1"><rect x="0" y="0" width="960" height="540" fill="#000d1f"></rect><defs><linearGradient id="grad1_0" x1="43.8%" y1="0%" x2="100%" y2="100%"><stop offset="14.444444444444446%" stop-color="#fab33c" stop-opacity="1"></stop><stop offset="85.55555555555554%" stop-color="#fab33c" stop-opacity="1"></stop></linearGradient></defs><defs><linearGradient id="grad1_1" x1="43.8%" y1="0%" x2="100%" y2="100%"><stop offset="14.444444444444446%" stop-color="#fab33c" stop-opacity="1"></stop><stop offset="85.55555555555554%" stop-color="#ea7853" stop-opacity="1"></stop></linearGradient></defs><defs><linearGradient id="grad1_2" x1="43.8%" y1="0%" x2="100%" y2="100%"><stop offset="14.444444444444446%" stop-color="#ba4e64" stop-opacity="1"></stop><stop offset="85.55555555555554%" stop-color="#ea7853" stop-opacity="1"></stop></linearGradient></defs><defs><linearGradient id="grad1_3" x1="43.8%" y1="0%" x2="100%" y2="100%"><stop offset="14.444444444444446%" stop-color="#ba4e64" stop-opacity="1"></stop><stop offset="85.55555555555554%" stop-color="#773862" stop-opacity="1"></stop></linearGradient></defs><defs><linearGradient id="grad1_4" x1="43.8%" y1="0%" x2="100%" y2="100%"><stop offset="14.444444444444446%" stop-color="#332749" stop-opacity="1"></stop><stop offset="85.55555555555554%" stop-color="#773862" stop-opacity="1"></stop></linearGradient></defs><defs><linearGradient id="grad1_5" x1="43.8%" y1="0%" x2="100%" y2="100%"><stop offset="14.444444444444446%" stop-color="#332749" stop-opacity="1"></stop><stop offset="85.55555555555554%" stop-color="#000d1f" stop-opacity="1"></stop></linearGradient></defs><defs><linearGradient id="grad2_0" x1="0%" y1="0%" x2="56.3%" y2="100%"><stop offset="14.444444444444446%" stop-color="#fab33c" stop-opacity="1"></stop><stop offset="85.55555555555554%" stop-color="#fab33c" stop-opacity="1"></stop></linearGradient></defs><defs><linearGradient id="grad2_1" x1="0%" y1="0%" x2="56.3%" y2="100%"><stop offset="14.444444444444446%" stop-color="#ea7853" stop-opacity="1"></stop><stop offset="85.55555555555554%" stop-color="#fab33c" stop-opacity="1"></stop></linearGradient></defs><defs><linearGradient id="grad2_2" x1="0%" y1="0%" x2="56.3%" y2="100%"><stop offset="14.444444444444446%" stop-color="#ea7853" stop-opacity="1"></stop><stop offset="85.55555555555554%" stop-color="#ba4e64" stop-opacity="1"></stop></linearGradient></defs><defs><linearGradient id="grad2_3" x1="0%" y1="0%" x2="56.3%" y2="100%"><stop offset="14.444444444444446%" stop-color="#773862" stop-opacity="1"></stop><stop offset="85.55555555555554%" stop-color="#ba4e64" stop-opacity="1"></stop></linearGradient></defs><defs><linearGradient id="grad2_4" x1="0%" y1="0%" x2="56.3%" y2="100%"><stop offset="14.444444444444446%" stop-color="#773862" stop-opacity="1"></stop><stop offset="85.55555555555554%" stop-color="#332749" stop-opacity="1"></stop></linearGradient></defs><defs><linearGradient id="grad2_5" x1="0%" y1="0%" x2="56.3%" y2="100%"><stop offset="14.444444444444446%" stop-color="#000d1f" stop-opacity="1"></stop><stop offset="85.55555555555554%" stop-color="#332749" stop-opacity="1"></stop></linearGradient></defs><g transform="translate(960, 0)"><path d="M0 405C-52.4 399.4 -104.9 393.7 -155 374.2C-205.1 354.6 -252.9 321.2 -277.9 277.9C-302.9 234.6 -305.1 181.5 -322.4 133.6C-339.8 85.6 -372.4 42.8 -405 0L0 0Z" fill="#171c35"></path><path d="M0 337.5C-43.7 332.8 -87.4 328.1 -129.2 311.8C-170.9 295.5 -210.8 267.6 -231.6 231.6C-252.4 195.5 -254.2 151.3 -268.7 111.3C-283.2 71.3 -310.3 35.7 -337.5 0L0 0Z" fill="#533058"></path><path d="M0 270C-35 266.2 -69.9 262.5 -103.3 249.4C-136.7 236.4 -168.6 214.1 -185.3 185.3C-201.9 156.4 -203.4 121 -215 89C-226.5 57.1 -248.3 28.5 -270 0L0 0Z" fill="#9a4266"></path><path d="M0 202.5C-26.2 199.7 -52.4 196.9 -77.5 187.1C-102.6 177.3 -126.5 160.6 -138.9 138.9C-151.4 117.3 -152.5 90.8 -161.2 66.8C-169.9 42.8 -186.2 21.4 -202.5 0L0 0Z" fill="#d6605d"></path><path d="M0 135C-17.5 133.1 -35 131.2 -51.7 124.7C-68.4 118.2 -84.3 107.1 -92.6 92.6C-101 78.2 -101.7 60.5 -107.5 44.5C-113.3 28.5 -124.1 14.3 -135 0L0 0Z" fill="#f79446"></path><path d="M0 67.5C-8.7 66.6 -17.5 65.6 -25.8 62.4C-34.2 59.1 -42.2 53.5 -46.3 46.3C-50.5 39.1 -50.8 30.3 -53.7 22.3C-56.6 14.3 -62.1 7.1 -67.5 0L0 0Z" fill="#fab33c"></path></g><g transform="translate(0, 540)"><path d="M0 -405C48.6 -390.1 97.1 -375.1 148.5 -358.5C199.8 -341.8 254 -323.3 286.4 -286.4C318.8 -249.4 329.4 -193.9 345.5 -143.1C361.7 -92.3 383.3 -46.2 405 0L0 0Z" fill="#171c35"></path><path d="M0 -337.5C40.5 -325.1 80.9 -312.6 123.7 -298.7C166.5 -284.8 211.7 -269.4 238.6 -238.6C265.6 -207.8 274.5 -161.6 287.9 -119.3C301.4 -76.9 319.4 -38.5 337.5 0L0 0Z" fill="#533058"></path><path d="M0 -270C32.4 -260 64.7 -250.1 99 -239C133.2 -227.9 169.3 -215.6 190.9 -190.9C212.5 -166.3 219.6 -129.3 230.4 -95.4C241.1 -61.5 255.6 -30.8 270 0L0 0Z" fill="#9a4266"></path><path d="M0 -202.5C24.3 -195 48.6 -187.6 74.2 -179.2C99.9 -170.9 127 -161.7 143.2 -143.2C159.4 -124.7 164.7 -97 172.8 -71.6C180.8 -46.2 191.7 -23.1 202.5 0L0 0Z" fill="#d6605d"></path><path d="M0 -135C16.2 -130 32.4 -125 49.5 -119.5C66.6 -113.9 84.7 -107.8 95.5 -95.5C106.3 -83.1 109.8 -64.6 115.2 -47.7C120.6 -30.8 127.8 -15.4 135 0L0 0Z" fill="#f79446"></path><path d="M0 -67.5C8.1 -65 16.2 -62.5 24.7 -59.7C33.3 -57 42.3 -53.9 47.7 -47.7C53.1 -41.6 54.9 -32.3 57.6 -23.9C60.3 -15.4 63.9 -7.7 67.5 0L0 0Z" fill="#fab33c"></path></g></svg>